<svg enable-background="new 0 0 32 32" height="512" viewBox="0 0 32 32" width="512" xmlns="http://www.w3.org/2000/svg"><g id="BG"><path d="m26 32h-20c-3.314 0-6-2.686-6-6v-20c0-3.314 2.686-6 6-6h20c3.314 0 6 2.686 6 6v20c0 3.314-2.686 6-6 6z" fill="#e3f8fa"/></g><g id="bold"><g fill="#8ce1eb"><path d="m8 14.189 3.664 1.811v-3.543l-3.664-1.763z"/><path d="m14.391 10.465c.019.01.035.025.053.037l1.199-.605-3.64-1.897-1.187.618z"/><path d="m9.707 9.195-1.348.702 3.644 1.838 1.325-.669z"/><path d="m14.667 11.336v1.411c0 .284-.224.514-.5.514s-.5-.23-.5-.514v-.93l-1.331.64v3.543l3.664-1.811v-3.494z"/></g><path d="m13 20.667c-.92 0-1.667.747-1.667 1.667s.747 1.666 1.667 1.666 1.667-.747 1.667-1.667-.747-1.666-1.667-1.666z" fill="#26c6da"/><path d="m21 20.667c-.92 0-1.667.747-1.667 1.667s.747 1.666 1.667 1.666 1.667-.747 1.667-1.667-.747-1.666-1.667-1.666z" fill="#26c6da"/><path d="m18 15.167v7c0 .273-.227.5-.5.5h-2.2c.013-.107.033-.22.033-.333 0-1.287-1.046-2.334-2.333-2.334s-2.333 1.047-2.333 2.333c0 .113.02.227.033.333h-.867c-.273 0-.5-.227-.5-.5v-5.833l1.74.86c.187.093.387.14.593.14.113 0 .22-.02.333-.047.113.027.22.047.333.047.207 0 .407-.047.593-.14l3.667-1.807c.307-.153.533-.413.647-.72h.26c.274.001.501.227.501.501z" fill="#26c6da"/><path d="m20.833 17.033h-1.667c-.276 0-.5.224-.5.5v4.633c0 .02.009.036.011.056.06-1.234 1.075-2.222 2.323-2.222 1.286 0 2.333 1.047 2.333 2.333 0 .114-.018.224-.034.333h.2c.276 0 .5-.224.5-.5v-1.966c.001-1.746-1.42-3.167-3.166-3.167z" fill="#26c6da"/></g></svg>