<svg enable-background="new 0 0 32 32" height="512" viewBox="0 0 32 32" width="512" xmlns="http://www.w3.org/2000/svg"><g id="BG"><path d="m26 32h-20c-3.314 0-6-2.686-6-6v-20c0-3.314 2.686-6 6-6h20c3.314 0 6 2.686 6 6v20c0 3.314-2.686 6-6 6z" fill="#fff9dd"/></g><g id="bold"><path d="m12 8c-2.206 0-4 1.794-4 4s1.794 4 4 4 4-1.794 4-4-1.794-4-4-4zm2.335 3.106-2.333 2.667c-.121.139-.295.221-.479.227-.007 0-.015 0-.022 0-.176 0-.346-.07-.471-.195l-1.333-1.333c-.26-.26-.26-.682 0-.943s.682-.26.943 0l.829.829 1.864-2.131c.243-.276.663-.305.941-.063.275.244.303.664.061.942z" fill="#ffe777"/><g fill="#ffd200"><path d="m13 20.667c-.92 0-1.667.747-1.667 1.667s.747 1.666 1.667 1.666 1.667-.747 1.667-1.667-.747-1.666-1.667-1.666z"/><path d="m21 20.667c-.92 0-1.667.747-1.667 1.667s.747 1.666 1.667 1.666 1.667-.747 1.667-1.667-.747-1.666-1.667-1.666z"/><path d="m18 15.167v7c0 .273-.227.5-.5.5h-2.2c.013-.107.033-.22.033-.333 0-1.287-1.046-2.334-2.333-2.334s-2.333 1.047-2.333 2.333c0 .113.02.227.033.333h-.867c-.273 0-.5-.227-.5-.5v-5.553c.787.46 1.7.72 2.667.72 1.967 0 3.693-1.073 4.613-2.667h.887c.273.001.5.227.5.501z"/><path d="m20.833 17.033h-1.667c-.276 0-.5.224-.5.5v4.633c0 .02.009.036.011.056.06-1.234 1.075-2.222 2.323-2.222 1.286 0 2.333 1.047 2.333 2.333 0 .114-.018.224-.034.333h.2c.276 0 .5-.224.5-.5v-1.966c.001-1.746-1.42-3.167-3.166-3.167z"/></g></g></svg>