<svg enable-background="new 0 0 32 32" height="512" viewBox="0 0 32 32" width="512" xmlns="http://www.w3.org/2000/svg"><g id="BG"><path d="m26 32h-20c-3.314 0-6-2.686-6-6v-20c0-3.314 2.686-6 6-6h20c3.314 0 6 2.686 6 6v20c0 3.314-2.686 6-6 6z" fill="#f5e6fe"/></g><g id="bold"><path d="m12.333 8c-2.389 0-4.333 1.944-4.333 4.333s1.944 4.333 4.333 4.333 4.333-1.944 4.333-4.333-1.943-4.333-4.333-4.333zm1.728 6.14c-.098.127-.246.193-.395.193-.107 0-.215-.035-.307-.105l-1.5-1.167c-.122-.095-.193-.24-.193-.395v-2.166c0-.276.224-.5.5-.5s.5.224.5.5v1.922l1.307 1.017c.219.169.258.483.088.701z" fill="#d9a4fc"/><g fill="#be63f9"><path d="m13 20.667c-.92 0-1.667.747-1.667 1.667s.747 1.666 1.667 1.666 1.667-.747 1.667-1.667-.747-1.666-1.667-1.666z"/><path d="m21 20.667c-.92 0-1.667.747-1.667 1.667s.747 1.666 1.667 1.666 1.667-.747 1.667-1.667-.747-1.666-1.667-1.666z"/><path d="m18 15.167v7c0 .273-.227.5-.5.5h-2.2c.013-.107.033-.22.033-.333 0-1.287-1.046-2.334-2.333-2.334s-2.333 1.047-2.333 2.333c0 .113.02.227.033.333h-.867c-.273 0-.5-.227-.5-.5v-5.026c.867.547 1.9.86 3 .86 2.293 0 4.273-1.367 5.16-3.333h.007c.273 0 .5.226.5.5z"/><path d="m20.833 17.033h-1.667c-.276 0-.5.224-.5.5v4.633c0 .02.009.036.011.056.06-1.234 1.075-2.222 2.323-2.222 1.286 0 2.333 1.047 2.333 2.333 0 .114-.018.224-.034.333h.2c.276 0 .5-.224.5-.5v-1.966c.001-1.746-1.42-3.167-3.166-3.167z"/></g></g></svg>