<svg enable-background="new 0 0 32 32" height="512" viewBox="0 0 32 32" width="512" xmlns="http://www.w3.org/2000/svg"><g id="BG" fill="#ffe6e2"><path d="m26 32h-20c-3.314 0-6-2.686-6-6v-20c0-3.314 2.686-6 6-6h20c3.314 0 6 2.686 6 6v20c0 3.314-2.686 6-6 6z"/><path d="m26 32h-20c-3.314 0-6-2.686-6-6v-20c0-3.314 2.686-6 6-6h20c3.314 0 6 2.686 6 6v20c0 3.314-2.686 6-6 6z"/></g><g id="bold"><path d="m17.642 24c-.022 0-.045-.001-.067-.003-.251-.02-.48-.147-.628-.351l-.774-1.062-1.156-.856c-.202-.149-.329-.379-.348-.629s.072-.496.249-.673c.26-.261.647-.335.986-.187l.717.313 1.546-1.666-2.882-1.525c-.26-.156-.414-.395-.448-.668-.033-.274.059-.542.254-.737.196-.197.476-.279.748-.22l4.345.921 1.537-1.633c.21-.223.552-.353.939-.359.424-.012.766.12.992.346s.352.588.346.993c-.006.387-.136.729-.358.939v.001l-1.638 1.544 1 4.395c.064.273-.017.559-.218.76-.193.194-.463.288-.732.255-.272-.032-.511-.184-.655-.418l-1.613-2.981-1.663 1.546.313.718c.148.338.074.725-.187.986-.159.161-.378.251-.605.251z" fill="#fd907e"/><path d="m20.833 8h-2.833v5.5c0 .192-.11.368-.284.451-.068.033-.142.049-.216.049-.111 0-.222-.037-.313-.11l-2.187-1.75-2.188 1.75c-.15.121-.356.144-.529.06-.173-.082-.283-.258-.283-.45v-5.5h-2.833c-.644 0-1.167.523-1.167 1.167v11.667c0 .643.523 1.166 1.167 1.166h4.4c-.122-.248-.205-.517-.226-.799-.048-.638.184-1.264.636-1.716.348-.349.793-.569 1.273-.633 0 0-.629-.333-.649-.345-.606-.363-1.002-.965-1.086-1.649-.083-.686.149-1.356.636-1.843.402-.404.941-.628 1.516-.628.154 0 .308.017.458.049l3.605.764 1.023-1.087c.321-.34.759-.574 1.248-.691v-4.255c-.001-.644-.524-1.167-1.168-1.167z" fill="#fc573b"/></g></svg>